<?xml version="1.0" encoding="utf-8"?>
<!-- Generator: Adobe Illustrator 25.4.2, SVG Export Plug-In . SVG Version: 6.00 Build 0)  -->
<svg version="1.1" id="Layer_1" xmlns="http://www.w3.org/2000/svg" xmlns:xlink="http://www.w3.org/1999/xlink" x="0px" y="0px"
	 viewBox="0 0 200 200" style="enable-background:new 0 0 200 200;" xml:space="preserve">
<style type="text/css">
	.st0{fill:#FEFBF9;}
</style>
<path class="st0" d="M143.9,90.8c-2.8-3-7.4-3.2-10.4-0.4l-26.1,23.9V7.4c0-4.1-3.3-7.4-7.4-7.4s-7.4,3.3-7.4,7.4v106.5L67.9,90.4
	c-3-2.8-7.6-2.7-10.4,0.3c-2.8,3-2.7,7.6,0.3,10.4l37.2,35.3c0,0,0.1,0.1,0.1,0.1c0.3,0.3,0.6,0.5,1,0.8c0,0,0,0,0,0
	c0.3,0.2,0.6,0.4,1,0.5c0,0,0.1,0,0.1,0c0.3,0.1,0.7,0.2,1,0.3c0.1,0,0.3,0.1,0.4,0.1c0.5,0.1,1,0.1,1.4,0.1c0.5,0,0.9-0.1,1.4-0.1
	c0.2,0,0.3-0.1,0.5-0.1c0.3-0.1,0.6-0.2,0.9-0.3c0.2-0.1,0.4-0.2,0.5-0.3c0.2-0.1,0.5-0.2,0.7-0.4c0.2-0.1,0.3-0.2,0.5-0.4
	c0.2-0.1,0.3-0.2,0.5-0.4l38.4-35.3C146.4,98.5,146.6,93.8,143.9,90.8L143.9,90.8z"/>
<path class="st0" d="M166.5,43.6h-16.6c0,0,0,0,0,0c-4.3,0-7.7,3.5-7.7,7.7s3.5,7.7,7.7,7.7c0,0,0,0,0,0c0,0,0,0,0,0h16.6
	c4.8,0,8.9,4.9,8.9,10.7v104c0,5.9-4.8,10.7-10.7,10.7H35.4c-5.9,0-10.7-4.8-10.7-10.7V81.1V69.8c0-5.8,4.1-10.7,8.9-10.7h16.6
	c0,0,0,0,0,0c0,0,0,0,0,0c4.3,0,7.7-3.5,7.7-7.7s-3.5-7.7-7.7-7.7c0,0,0,0,0,0c0,0,0,0,0,0H33.5c-13.4,0-24.3,11.8-24.3,26.2v11.3
	v92.7c0,14.5,11.7,26.2,26.2,26.2h129.2c14.5,0,26.2-11.7,26.2-26.2v-104C190.8,55.4,179.9,43.6,166.5,43.6z"/>
</svg>
