<?xml version="1.0" encoding="utf-8"?>
<!-- Generator: Adobe Illustrator 25.4.2, SVG Export Plug-In . SVG Version: 6.00 Build 0)  -->
<svg version="1.1" id="Layer_1" xmlns="http://www.w3.org/2000/svg" xmlns:xlink="http://www.w3.org/1999/xlink" x="0px" y="0px"
	 viewBox="0 0 200 200" style="enable-background:new 0 0 200 200;" xml:space="preserve">
<style type="text/css">
	.st0{fill:#FEFBF9;}
</style>
<g>
	<path class="st0" d="M145.7,14.3l-38-11.7C97.5-0.8,86.4,4.8,83,14.9l-4.6,14.8L41.2,148.2l-0.5,1.7c-0.4,1.3-0.2,2.7,0.4,3.9
		l23.3,41.9c1.3,2.5,4.3,3.4,6.7,2.1l43.1-21.2c1.2-0.6,2-1.6,2.4-2.9l37.6-120.2l4.7-14.9C161.8,28.3,156,17.5,145.7,14.3z
		 M109,164.3l-56.8-17.9L86.3,37.5l56.9,17.8L109,164.3z M54.5,157.6l46.3,14.7l-30,14.7L54.5,157.6z M149.3,35.7l-3.2,10.1
		L89.3,27.9l3.2-10.1c2-4.9,7.3-7.4,12.3-5.8l37.8,11.8C147.8,25.2,150.8,30.6,149.3,35.7z"/>
	<path class="st0" d="M96.6,60.4c-2.3-0.7-4.8,0.6-5.5,2.9L71.4,126c-0.7,2.3,0.6,4.8,2.9,5.5c1.1,0.3,2.3,0.2,3.4-0.3
		c1-0.5,1.8-1.5,2.1-2.6l19.6-62.7C100.2,63.6,98.9,61.1,96.6,60.4C96.7,60.3,96.6,60.4,96.6,60.4z M121.8,68.2
		c-2.3-0.7-4.8,0.6-5.5,2.9l0,0l-19.7,62.7c-0.7,2.3,0.6,4.8,2.9,5.5l0,0c1.1,0.3,2.3,0.2,3.4-0.3c1-0.5,1.8-1.5,2.1-2.6l19.7-62.7
		C125.3,71.4,124,68.9,121.8,68.2L121.8,68.2z"/>
</g>
</svg>
