<svg xmlns="http://www.w3.org/2000/svg" viewBox="0 0 267.35 165.97"><defs><style>.cls-1{fill:#fff;}.cls-2{fill:#e57510;}</style></defs><g id="Layer_2" data-name="Layer 2"><g id="Layer_1-2" data-name="Layer 1"><path class="cls-1" d="M111.57,134.54v-3.31c14.9-2.9,15.93-4.35,16.14-26.08l.62-85.69C112.6,56.09,82.59,125.64,79.28,134.54H76.17C72.44,124.81,46,59.2,30.84,22.77c-2.9,63.13-3.31,87.76-3.1,94.59.41,9.11,5,11.39,20.9,13.87v3.31H0v-3.31c14.49-2.07,17.39-5.59,18.63-13.46,1-6.83,1.86-18,6.83-100C25.67,12.83,23.8,5.17,6,3.31V0H47L89,95.63,131.85,0H171V3.31c-17.18,3.11-18.63,4.56-18.42,24l.83,77.83c.2,20.7,1,23,17.59,26.08v3.31Z"/><path class="cls-2" d="M147.74,115.12c6.34.53,15.59-9,20.74-19.16.92-1.72,2.38-1.85,2.91,0,.66,2.11.13,5-1.32,8.19-1.85,4-11.5,14.93-22.07,14.67-9.11-.27-14-6.61-11-20.88C141.93,75,157,51,170.46,37c2-2.11,3.83-2.38,5.68-.66,3.83,3.43,4.63,8.32,3,14.53-4.09,16.25-18.89,32.1-30.65,39.77C143.25,103.62,141.79,114.59,147.74,115.12Zm26.95-67c-1.72-1.06-11.49,13.6-20.61,30.51A69.54,69.54,0,0,0,150.91,85C169,70.33,176.41,49.19,174.69,48.14Z"/><path class="cls-2" d="M207.59,90.41c-2.78,11.23-11.1,24.57-20.88,27.88-4.75,1.58-11.36,1-16.64-5.82-5.82-7.66-3.84-19.15,2.11-29.72,5-9,13.08-16.65,21-17.17,4.09-.27,6.34.92,9,4.49,3,4.09,7,5,6.21,14.53-.13,1.06-.13,2-.27,3,3.35.32,10.19-3.52,11.25-3.52s.92.67.4,1.33C218.83,86.5,212.35,90.38,207.59,90.41Zm-11.23-3.3a16.4,16.4,0,0,1-6.08-11.63A46.1,46.1,0,0,0,180.11,87.9c-5.55,10-7.53,22.2-4.1,25.1,3.7,3,11.76-1.58,18.23-13.74a69.91,69.91,0,0,0,4.63-10.57A9.73,9.73,0,0,1,196.36,87.11Zm4.49-11.76c-.66-4.23-3.31-3.43-4,.4a10.88,10.88,0,0,0,2.91,9.38C200.85,81,201.24,77.73,200.85,75.35Z"/><path class="cls-2" d="M239,122.52c-7.27,17.7-16.65,38.7-27.35,42.93-2.64,1.06-5.28.66-7.66-2.77-2.78-4-5.15-8.59-2.64-16.39,3.83-11.88,15.19-19.94,28.27-25,1.32-2.91,2.51-6.08,3.83-9.12-3.83,3.83-8.46,6.61-13.34,6.61-12.16,0-14.54-16.52-3.83-32.37,10.3-15.33,21-21.27,27.74-21.27,5.28,0,7.93,4.09,7.79,8.72,1.59-2.64,3-5,4.36-7.27,1.06-1.85,2.38-2,3.31-.79,2,2.38,3,8.06-.27,14.53-4,7.93-12.29,23.91-17.83,36.73a65.93,65.93,0,0,0,23.64-19.82c.8-1,2-1,2.25.27s-.4,4.09-2.64,7.66C259.51,113.27,250,118.55,239,122.52Zm-32.37,35.53c1.72,2.51,12.15-11.23,20.74-31.31C210.23,136.78,204.42,154.88,206.66,158.05ZM246,71.92c-4.1-.27-13.74,8.19-21,19.68s-8.58,23-3.3,23.12,11.89-8.19,18.63-19.82C248.67,80.37,249.86,72.18,246,71.92Z"/></g></g></svg>