<?xml version="1.0" encoding="utf-8"?>
<!-- Generator: Adobe Illustrator 25.4.2, SVG Export Plug-In . SVG Version: 6.00 Build 0)  -->
<svg version="1.1" id="Layer_1" xmlns="http://www.w3.org/2000/svg" xmlns:xlink="http://www.w3.org/1999/xlink" x="0px" y="0px"
	 viewBox="0 0 200 200" style="enable-background:new 0 0 200 200;" xml:space="preserve">
<style type="text/css">
	.st0{fill:#FEFBF9;}
</style>
<path class="st0" d="M162.8,105.4c0.1-0.3,0.3-0.5,0.5-0.7c2.3-4.8,1.5-10.6-2.5-14.4L68.9,3.4c-5-4.7-12.9-4.5-17.6,0.5
	c-4.7,5-4.5,12.9,0.5,17.6l82.4,77.9l-82,79.1c-5,4.8-5.1,12.7-0.3,17.6c2.4,2.5,5.7,3.8,9,3.8c3.1,0,6.2-1.2,8.7-3.5l91-87.7
	c0.2-0.2,0.2-0.4,0.4-0.6c0.1-0.1,0.3-0.2,0.4-0.3C161.9,107.1,162.3,106.2,162.8,105.4z"/>
</svg>
