<?xml version="1.0" encoding="utf-8"?>
<!-- Generator: Adobe Illustrator 25.4.2, SVG Export Plug-In . SVG Version: 6.00 Build 0)  -->
<svg version="1.1" id="Layer_1" xmlns="http://www.w3.org/2000/svg" xmlns:xlink="http://www.w3.org/1999/xlink" x="0px" y="0px"
	 viewBox="0 0 201 200" style="enable-background:new 0 0 201 200;" xml:space="preserve">
<style type="text/css">
	.st0{fill:#FEFBF9;}
</style>
<path class="st0" d="M129.1,195.9H23.4c-12.5,0-22.7-10.1-22.7-22.6V22.6C0.7,10.2,10.9,0,23.4,0h151.1c12.5,0,22.7,10.2,22.7,22.6
	v105.5c0,4.1-3.4,7.6-7.6,7.6s-7.6-3.4-7.6-7.6V22.6c0-4.1-3.4-7.5-7.5-7.5H23.4c-4.2,0-7.6,3.4-7.6,7.5v150.6
	c0,4.1,3.4,7.5,7.6,7.5h105.8c4.1,0,7.6,3.4,7.6,7.5C136.7,192.5,133.3,195.9,129.1,195.9L129.1,195.9z"/>
<path class="st0" d="M8.3,150.7c-1.9,0-3.9-0.8-5.3-2.3c-2.9-2.9-2.9-7.7,0-10.6l37.7-37.5c6.9-6.9,17.4-8.6,26.1-4.3l41,20.5
	c2.9,1.5,6.4,0.9,8.7-1.4l67.9-67.6c2.9-2.9,7.7-2.9,10.7,0c3,2.9,2.9,7.7,0,10.7L127,125.8c-6.9,6.9-17.3,8.5-26.1,4.2l-41-20.4
	c-2.9-1.5-6.4-0.9-8.7,1.4l-37.7,37.5C12.1,149.9,10.2,150.7,8.3,150.7z M68.7,75.3C56.2,75.3,46,65.2,46,52.7
	c0-12.5,10.1-22.6,22.7-22.6c12.5,0,22.7,10.1,22.7,22.6C91.4,65.2,81.1,75.3,68.7,75.3z M68.7,45.2c-4.1,0-7.6,3.4-7.6,7.5
	c0,4.2,3.4,7.5,7.6,7.5c4.1,0,7.5-3.4,7.5-7.5C76.2,48.6,72.9,45.2,68.7,45.2L68.7,45.2z M163.1,200c-4.2,0-7.6-3.4-7.6-7.6v-45.2
	c0-4.1,3.4-7.5,7.6-7.5c4.1,0,7.6,3.4,7.6,7.5v45.2C170.6,196.6,167.2,200,163.1,200z"/>
<path class="st0" d="M193.2,169.6c-1.9,0-3.7-0.7-5.2-2l-25-23.5l-25.1,23.5c-3,2.8-7.8,2.7-10.6-0.3c-2.9-3.1-2.7-7.8,0.3-10.7
	l26.4-24.8c2.2-2.7,5.4-4.2,8.9-4.2c3.5,0,6.7,1.6,8.8,4.2l26.5,24.8c3.1,2.9,3.2,7.6,0.3,10.7C197.3,168.8,195.3,169.6,193.2,169.6
	L193.2,169.6z"/>
</svg>
